<svg width="59" height="86" viewBox="0 0 59 86" fill="none" xmlns="http://www.w3.org/2000/svg">
<path fill-rule="evenodd" clip-rule="evenodd" d="M0 86L59 61.4286V0H0V86ZM12.5156 24.5391H20.3965C20.748 23.4063 21.4023 22.4883 22.3594 21.7852C23.3164 21.0625 24.3809 20.7012 25.5527 20.7012C26.8809 20.7012 27.9551 21.0918 28.7754 21.873C29.5957 22.6348 30.0059 23.6016 30.0059 24.7734C30.0059 25.6719 29.7324 26.5215 29.1855 27.3223C28.6582 28.123 27.9062 28.7578 26.9297 29.2266C25.9727 29.6758 24.5078 29.9785 22.5352 30.1348V37.166C25.7383 37.2051 28.1895 37.8984 29.8887 39.2461C31.5879 40.5938 32.4375 42.2441 32.4375 44.1973C32.4375 45.9746 31.8027 47.4785 30.5332 48.709C29.2832 49.9395 27.7012 50.5547 25.7871 50.5547C23.9512 50.5547 22.4277 50.0176 21.2168 48.9434C20.0254 47.8496 19.2539 46.1895 18.9023 43.9629H10.7871C11.041 48.3184 12.4863 51.7656 15.123 54.3047C17.7598 56.8242 21.168 58.084 25.3477 58.084C29.7617 58.084 33.3945 56.7461 36.2461 54.0703C39.0977 51.375 40.5234 48.0938 40.5234 44.2266C40.5234 41.5898 39.7812 39.3047 38.2969 37.3711C36.832 35.418 34.791 34.0508 32.1738 33.2695C34.166 32.293 35.6797 31.0137 36.7148 29.4316C37.7695 27.8496 38.2969 26.1016 38.2969 24.1875C38.2969 21.1016 37.0957 18.4355 34.6934 16.1895C32.3105 13.9434 29.3516 12.8203 25.8164 12.8203C21.8516 12.8203 18.5605 14.168 15.9434 16.8633C14.0684 18.7969 12.9258 21.3555 12.5156 24.5391Z" fill="#DFAE8A" fill-opacity="0.5"/>
</svg>
