<svg width="59" height="86" viewBox="0 0 59 86" fill="none" xmlns="http://www.w3.org/2000/svg">
<path fill-rule="evenodd" clip-rule="evenodd" d="M0 86L59 61.4286V0H0V86ZM39.2051 13.9043H19.0195L13.8047 37.8398L20.4844 39.334C21.3242 38.4355 22.1738 37.7617 23.0332 37.3125C23.9121 36.8633 24.8008 36.6387 25.6992 36.6387C27.3789 36.6387 28.8047 37.2832 29.9766 38.5723C31.168 39.8418 31.7637 41.4727 31.7637 43.4648C31.7637 45.5156 31.1289 47.1953 29.8594 48.5039C28.5898 49.8125 27.0469 50.4668 25.2305 50.4668C23.9219 50.4668 22.7207 50.125 21.627 49.4414C20.5527 48.7383 19.6836 47.7129 19.0195 46.3652H10.4062C11.2266 49.998 12.9551 52.8594 15.5918 54.9492C18.2285 57.0391 21.3828 58.084 25.0547 58.084C29.1562 58.084 32.6328 56.6484 35.4844 53.7773C38.3555 50.8867 39.791 47.3418 39.791 43.1426C39.791 38.9824 38.4922 35.5742 35.8945 32.918C33.3164 30.2422 30.0742 28.9043 26.168 28.9043C25.7383 28.9043 25.2891 28.9434 24.8203 29.0215C24.3516 29.0801 23.873 29.1777 23.3848 29.3145L25.1426 21.4629H39.2051V13.9043Z" fill="#DFAE8A" fill-opacity="0.5"/>
</svg>
