<svg width="59" height="86" viewBox="0 0 59 86" fill="none" xmlns="http://www.w3.org/2000/svg">
<path fill-rule="evenodd" clip-rule="evenodd" d="M0 86L59 61.4286V0H0V86ZM33.375 16.3066L26.4023 12.8203L15.3281 34.5C13.8828 37.293 12.9551 39.3633 12.5449 40.7109C12.1543 42.0586 11.959 43.3965 11.959 44.7246C11.959 48.2207 13.248 51.3262 15.8262 54.041C18.4238 56.7363 21.666 58.084 25.5527 58.084C29.2637 58.084 32.4277 56.7852 35.0449 54.1875C37.6816 51.5703 39 48.3867 39 44.6367C39 40.75 37.7207 37.498 35.1621 34.8809C32.6035 32.2637 29.498 30.9551 25.8457 30.9551L33.375 16.3066ZM21.5391 40.3887C22.5742 39.2754 23.8535 38.7188 25.377 38.7188C26.9785 38.7188 28.3066 39.2754 29.3613 40.3887C30.4355 41.4824 30.9727 42.8594 30.9727 44.5195C30.9727 46.2188 30.4258 47.625 29.332 48.7383C28.2383 49.8516 26.9297 50.4082 25.4062 50.4082C23.9609 50.4082 22.6914 49.8418 21.5977 48.709C20.5234 47.5762 19.9863 46.1797 19.9863 44.5195C19.9863 42.8594 20.5039 41.4824 21.5391 40.3887Z" fill="#DFAE8A" fill-opacity="0.5"/>
</svg>
