<svg width="59" height="86" viewBox="0 0 59 86" fill="none" xmlns="http://www.w3.org/2000/svg">
<path fill-rule="evenodd" clip-rule="evenodd" d="M0 86L59 61.4286V0H0V86ZM13.7619 27.4288H21.7599C21.8381 25.1827 22.4631 23.4054 23.6349 22.0968C24.8068 20.7882 26.2717 20.1339 28.0295 20.1339C29.7678 20.1339 31.1838 20.6808 32.2775 21.7745C33.3908 22.8487 33.9474 24.2159 33.9474 25.8761C33.9474 27.4776 33.4103 29.2745 32.3361 31.2667C31.2814 33.2394 29.1428 35.8565 25.9201 39.1183L12.59 52.712V56.6378H42.4435V49.0499H27.092L31.926 43.9522C35.7932 39.9288 38.4494 36.4425 39.8947 33.4933C41.3596 30.544 42.092 27.7901 42.092 25.2315C42.092 23.0831 41.4865 20.9737 40.2756 18.9034C39.0842 16.8136 37.4826 15.2218 35.4709 14.128C33.4787 13.0147 31.174 12.4581 28.5568 12.4581C24.3185 12.4581 20.842 13.796 18.1271 16.4718C15.4318 19.128 13.9767 22.7804 13.7619 27.4288Z" fill="#DFAE8A" fill-opacity="0.5"/>
</svg>
