<svg width="72" height="75" viewBox="0 0 72 75" fill="none" xmlns="http://www.w3.org/2000/svg">
<path fill-rule="evenodd" clip-rule="evenodd" d="M0 0H72V75H0V0ZM2.33261 2.32919V72.6707H69.6674V2.32919H2.33261Z" fill="#9F7150"/>
<path d="M4.354 2.32922H5.44255V72.6707H4.354V2.32922Z" fill="#9F7150"/>
<path d="M12.1294 2.32922H13.2179V72.6707H12.1294V2.32922Z" fill="#9F7150"/>
<path d="M19.9048 2.32922H20.9933V72.6707H19.9048V2.32922Z" fill="#9F7150"/>
<path d="M27.6802 2.32922H28.7688V72.6707H27.6802V2.32922Z" fill="#9F7150"/>
<path d="M8.2417 2.32922H9.33026V72.6707H8.2417V2.32922Z" fill="#9F7150"/>
<path d="M16.0171 2.32922H17.1056V72.6707H16.0171V2.32922Z" fill="#9F7150"/>
<path d="M23.7925 2.32922H24.881V72.6707H23.7925V2.32922Z" fill="#9F7150"/>
<path d="M31.5679 2.32922H32.6564V72.6707H31.5679V2.32922Z" fill="#9F7150"/>
<path d="M35.4556 2.32922H36.5442V72.6707H35.4556V2.32922Z" fill="#9F7150"/>
<path d="M39.3433 2.32922H40.4319V72.6707H39.3433V2.32922Z" fill="#9F7150"/>
<path d="M47.1189 2.32922H48.2074V72.6707H47.1189V2.32922Z" fill="#9F7150"/>
<path d="M43.2312 2.32922H44.3198V72.6707H43.2312V2.32922Z" fill="#9F7150"/>
<path d="M51.0066 2.4845H52.0951V72.826H51.0066V2.4845Z" fill="#9F7150"/>
<path d="M54.8943 2.4845H55.9828V72.826H54.8943V2.4845Z" fill="#9F7150"/>
<path d="M58.782 2.4845H59.8705V72.826H58.782V2.4845Z" fill="#9F7150"/>
<path d="M66.5571 2.4845H67.6458V72.826H66.5571V2.4845Z" fill="#9F7150"/>
<path d="M62.6694 2.4845H63.758V72.826H62.6694V2.4845Z" fill="#9F7150"/>
<path d="M0.699707 69.177V68.0901H71.1446V69.177H0.699707Z" fill="#9F7150"/>
<path d="M0.699707 61.413V60.326H71.1446V61.413H0.699707Z" fill="#9F7150"/>
<path d="M0.699707 53.6491V52.5621H71.1446V53.6491H0.699707Z" fill="#9F7150"/>
<path d="M0.699707 45.8851V44.7981H71.1446V45.8851H0.699707Z" fill="#9F7150"/>
<path d="M0.699707 65.2949V64.208H71.1446V65.2949H0.699707Z" fill="#9F7150"/>
<path d="M0.699707 57.5311V56.4441H71.1446V57.5311H0.699707Z" fill="#9F7150"/>
<path d="M0.699707 49.7671V48.6801H71.1446V49.7671H0.699707Z" fill="#9F7150"/>
<path d="M0.699707 42.003V40.916H71.1446V42.003H0.699707Z" fill="#9F7150"/>
<path d="M0.699707 38.1211V37.0342H71.1446V38.1211H0.699707Z" fill="#9F7150"/>
<path d="M0.699707 34.2391V33.1522H71.1446V34.2391H0.699707Z" fill="#9F7150"/>
<path d="M0.699707 26.4751V25.3882H71.1446V26.4751H0.699707Z" fill="#9F7150"/>
<path d="M0.699707 30.3571V29.2701H71.1446V30.3571H0.699707Z" fill="#9F7150"/>
<path d="M0.855469 22.5932V21.5062H71.3004V22.5932H0.855469Z" fill="#9F7150"/>
<path d="M0.855469 18.7111V17.6241H71.3004V18.7111H0.855469Z" fill="#9F7150"/>
<path d="M0.855469 14.8292V13.7422H71.3004V14.8292H0.855469Z" fill="#9F7150"/>
<path d="M0.855469 7.06522V5.97827H71.3004V7.06522H0.855469Z" fill="#9F7150"/>
<path d="M0.855469 10.9472V9.86023H71.3004V10.9472H0.855469Z" fill="#9F7150"/>
</svg>
