<svg width="72" height="72" viewBox="0 0 72 72" fill="none" xmlns="http://www.w3.org/2000/svg">
<path d="M67.1998 2.23207e-05H4.79991C2.14892 2.23207e-05 0 2.14949 0 4.79993C0 7.45092 2.14892 9.60039 4.79991 9.60039V68.4001C4.8021 70.3875 6.41269 71.9975 8.40011 71.9997H61.1996C63.1871 71.9975 64.7976 70.3875 64.7998 68.4001V9.60039H67.1998V10.8001C67.1998 11.4631 67.737 12.0003 68.3995 12.0003C69.0625 12.0003 69.5997 11.4631 69.5997 10.8001V8.93242C71.4811 7.85082 72.3985 5.63873 71.8355 3.5431C71.2724 1.44747 69.3696 -0.00656945 67.1998 2.23207e-05ZM2.39995 4.79993C2.39995 3.47443 3.47441 2.39998 4.79991 2.39998C6.1254 2.39998 7.19986 3.47443 7.19986 4.79993C7.19986 6.12542 6.1254 7.20043 4.79991 7.20043C3.47496 7.19878 2.40105 6.12488 2.39995 4.79993ZM62.3999 68.4001C62.3988 69.0625 61.8621 69.5992 61.1996 69.5998H8.40011C7.73764 69.5992 7.20096 69.0625 7.19986 68.4001V9.60039H9.59981V25.2004C9.59981 25.8628 10.137 26.4001 10.8001 26.4001C11.4625 26.4001 11.9998 25.8628 11.9998 25.2004V9.60039H14.3997V19.2002C14.3997 19.8627 14.9369 20.3999 15.6 20.3999C16.2624 20.3999 16.7997 19.8627 16.7997 19.2002V9.60039H19.2002V14.4003C19.2002 15.0628 19.7374 15.6 20.3999 15.6C21.0629 15.6 21.6001 15.0628 21.6001 14.4003V9.60039H62.3999V68.4001ZM67.1998 7.20043H8.9324C9.36471 6.47369 9.59487 5.64532 9.59981 4.79993C9.59487 3.95508 9.36471 3.12617 8.9324 2.39998H67.1998C68.5253 2.39998 69.5997 3.47443 69.5997 4.79993C69.5997 6.12542 68.5253 7.20043 67.1998 7.20043Z" fill="#9F7150"/>
<path d="M10.7999 64.7992C10.1369 64.7992 9.59961 65.3364 9.59961 65.9994C9.59961 66.6619 10.1369 67.1991 10.7999 67.1991H58.7995C59.4625 67.1991 59.9998 66.6619 59.9998 65.9994C59.9998 65.3364 59.4625 64.7992 58.7995 64.7992H10.7999Z" fill="#9F7150"/>
<path d="M68.3994 21.5994C69.0624 21.5994 69.5997 21.0622 69.5997 20.3991V15.5992C69.5997 14.9367 69.0624 14.3995 68.3994 14.3995C67.7369 14.3995 67.1997 14.9367 67.1997 15.5992V20.3991C67.1997 21.0622 67.7369 21.5994 68.3994 21.5994Z" fill="#9F7150"/>
<path d="M67.1997 29.9995C67.1997 30.662 67.7369 31.1992 68.3994 31.1992C69.0624 31.1992 69.5997 30.662 69.5997 29.9995V25.1996C69.5997 24.5366 69.0624 23.9993 68.3994 23.9993C67.7369 23.9993 67.1997 24.5366 67.1997 25.1996V29.9995Z" fill="#9F7150"/>
<path d="M67.1997 39.5993C67.1997 40.2618 67.7369 40.799 68.3994 40.799C69.0624 40.799 69.5997 40.2618 69.5997 39.5993V34.7994C69.5997 34.1364 69.0624 33.5992 68.3994 33.5992C67.7369 33.5992 67.1997 34.1364 67.1997 34.7994V39.5993Z" fill="#9F7150"/>
<path d="M67.1997 49.1991C67.1997 49.8622 67.7369 50.3994 68.3994 50.3994C69.0624 50.3994 69.5997 49.8622 69.5997 49.1991V44.3992C69.5997 43.7367 69.0624 43.1995 68.3994 43.1995C67.7369 43.1995 67.1997 43.7367 67.1997 44.3992V49.1991Z" fill="#9F7150"/>
<path d="M67.1997 58.799C67.1997 59.462 67.7369 59.9992 68.3994 59.9992C69.0624 59.9992 69.5997 59.462 69.5997 58.799V53.999C69.5997 53.3365 69.0624 52.7993 68.3994 52.7993C67.7369 52.7993 67.1997 53.3365 67.1997 53.999V58.799Z" fill="#9F7150"/>
<path d="M10.7999 33.5991C11.4624 33.5991 11.9996 33.0619 11.9996 32.3994V29.9995C11.9996 29.3364 11.4624 28.7992 10.7999 28.7992C10.1369 28.7992 9.59961 29.3364 9.59961 29.9995V32.3994C9.59961 33.0619 10.1369 33.5991 10.7999 33.5991Z" fill="#9F7150"/>
</svg>
