<svg width="30" height="32" viewBox="0 0 75 72" fill="none" xmlns="http://www.w3.org/2000/svg">
<path d="M72.5 0H2.49996C1.1198 0.00109863 0.00114441 1.07501 0 2.39996V10.8001C0.00114441 12.1251 1.1198 13.1984 2.49996 13.2001H4.09584L0.164795 19.8045C-0.0560759 20.1758 -0.0549317 20.6323 0.1688 21.0026C0.392532 21.3723 0.80452 21.6002 1.25027 21.6002H4.09584L0.164795 28.2047C-0.0560759 28.576 -0.0549317 29.0325 0.1688 29.4022C0.392532 29.7724 0.80452 29.9998 1.25027 29.9998H4.09584L0.164795 36.6048C-0.0560759 36.9761 -0.0549317 37.4321 0.1688 37.8023C0.392532 38.172 0.80452 38.4 1.25027 38.4H4.09584L0.164795 45.0049C-0.0560759 45.3763 -0.0549317 45.8322 0.1688 46.2025C0.392532 46.5721 0.80452 46.8001 1.25027 46.8001H4.09584L0.164795 53.4045C-0.0560759 53.7759 -0.0549317 54.2324 0.1688 54.6021C0.392532 54.9723 0.80452 55.1997 1.25027 55.2003H4.09584L0.164795 61.8047C-0.0560759 62.176 -0.0549317 62.6325 0.1688 63.0022C0.392532 63.3724 0.80452 63.5999 1.25027 63.5999H4.09584L0.164795 70.2048C-0.0560759 70.5762 -0.0549317 71.0321 0.1688 71.4023C0.392532 71.772 0.80452 72 1.25027 72H73.7497C74.1955 72 74.6075 71.772 74.8312 71.4023C75.0549 71.0321 75.056 70.5762 74.8352 70.2048L70.9042 63.5999H73.7497C74.1955 63.5999 74.6075 63.3724 74.8312 63.0022C75.0549 62.6325 75.056 62.176 74.8352 61.8047L70.9042 55.2003H73.7497C74.1955 55.1997 74.6075 54.9723 74.8312 54.6021C75.0549 54.2324 75.056 53.7759 74.8352 53.4045L70.9042 46.8001H73.7497C74.1955 46.8001 74.6075 46.5721 74.8312 46.2025C75.0549 45.8322 75.056 45.3763 74.8352 45.0049L70.9042 38.4H73.7497C74.1955 38.4 74.6075 38.172 74.8312 37.8023C75.0549 37.4321 75.056 36.9761 74.8352 36.6048L70.9042 29.9998H73.7497C74.1955 29.9998 74.6075 29.7724 74.8312 29.4022C75.0549 29.0325 75.056 28.576 74.8352 28.2047L70.9042 21.6002H73.7497C74.1955 21.6002 74.6075 21.3723 74.8312 21.0026C75.0549 20.6323 75.056 20.1758 74.8352 19.8045L70.9042 13.2001H72.5C73.8802 13.1984 74.9983 12.1251 75 10.8001V2.39996C74.9983 1.07501 73.8802 0.00164796 72.5 0ZM6.97518 13.2001H13.7501V19.2003H3.40404L6.97518 13.2001ZM53.75 13.2001V19.2003H21.25V13.2001H53.75ZM63.7499 13.2001V19.2003H61.2499V13.2001H63.7499ZM21.25 61.1999V55.2003H53.75V61.1999H21.25ZM53.75 63.5999V69.6H21.25V63.5999H53.75ZM53.75 27.5999H21.25V21.6002H53.75V27.5999ZM56.25 21.6002H58.75V27.5999H56.25V21.6002ZM21.25 44.4001V38.4H53.75V44.4001H21.25ZM53.75 46.8001V52.7997H21.25V46.8001H53.75ZM21.25 36V29.9998H53.75V36H21.25ZM18.75 27.5999H16.25V21.6002H18.75V27.5999ZM18.75 29.9998V36H16.25V29.9998H18.75ZM18.75 38.4V44.4001H16.25V38.4H18.75ZM18.75 46.8001V52.7997H16.25V46.8001H18.75ZM18.75 55.2003V61.1999H16.25V55.2003H18.75ZM56.25 55.2003H58.75V61.1999H56.25V55.2003ZM56.25 52.7997V46.8001H58.75V52.7997H56.25ZM56.25 44.4001V38.4H58.75V44.4001H56.25ZM56.25 36V29.9998H58.75V36H56.25ZM61.2499 29.9998H63.7499V36H61.2499V29.9998ZM61.2499 27.5999V21.6002H63.7499V27.5999H61.2499ZM58.75 19.2003H56.25V13.2001H58.75V19.2003ZM18.75 19.2003H16.25V13.2001H18.75V19.2003ZM6.97518 21.6002H13.7501V27.5999H3.40404L6.97518 21.6002ZM6.97518 29.9998H13.7501V36H3.40404L6.97518 29.9998ZM6.97518 38.4H13.7501V44.4001H3.40404L6.97518 38.4ZM6.97518 46.8001H13.7501V52.7997H3.40404L6.97518 46.8001ZM6.97518 55.2003H13.7501V61.1999H3.40404L6.97518 55.2003ZM6.97518 63.5999H13.7501V69.6H3.40404L6.97518 63.5999ZM16.25 69.6V63.5999H18.75V69.6H16.25ZM56.25 69.6V63.5999H58.75V69.6H56.25ZM71.5954 69.6H61.2499V63.5999H68.0248L71.5954 69.6ZM71.5954 61.1999H61.2499V55.2003H68.0248L71.5954 61.1999ZM71.5954 52.7997H61.2499V46.8001H68.0248L71.5954 52.7997ZM71.5954 44.4001H61.2499V38.4H63.7499V40.7999C63.7499 41.463 64.3095 42.0002 65.0001 42.0002C65.6902 42.0002 66.2499 41.463 66.2499 40.7999V38.4H68.0248L71.5954 44.4001ZM71.5954 36H66.2499V29.9998H68.0248L71.5954 36ZM71.5954 27.5999H66.2499V21.6002H68.0248L71.5954 27.5999ZM71.5954 19.2003H66.2499V13.2001H68.0248L71.5954 19.2003ZM68.7498 10.8001H2.49996V2.39996H72.5L72.5011 10.8001H68.7498Z" fill="#9F7150"/>
<path d="M8.75023 6.00024H6.25027C5.55963 6.00024 5 6.53747 5 7.19995C5 7.86298 5.55963 8.40022 6.25027 8.40022H8.75023C9.44031 8.40022 9.99993 7.86298 9.99993 7.19995C9.99993 6.53747 9.44031 6.00024 8.75023 6.00024Z" fill="#9F7150"/>
<path d="M21.2501 6.00024H13.7502C13.0596 6.00024 12.5 6.53747 12.5 7.19995C12.5 7.86298 13.0596 8.40022 13.7502 8.40022H21.2501C21.9407 8.40022 22.5004 7.86298 22.5004 7.19995C22.5004 6.53747 21.9407 6.00024 21.2501 6.00024Z" fill="#9F7150"/>
</svg>
