<svg width="72" height="64" viewBox="0 0 72 64" fill="none" xmlns="http://www.w3.org/2000/svg">
<path fill-rule="evenodd" clip-rule="evenodd" d="M69.6 0H2.39996C1.07501 0.00109863 0.00109863 1.07501 0 2.39996V10.8001C0.00109863 12.1251 1.07501 13.1984 2.39996 13.2001H69.6C70.925 13.1984 71.9984 12.1251 72 10.8001V2.39996C71.9984 1.07501 70.925 0.00164796 69.6 0ZM2.39996 10.8001H69.6011L69.6 2.39996H2.39996V10.8001Z" fill="#9F7150"/>
<path d="M8.40001 6.00024H6.00006C5.33703 6.00024 4.7998 6.53746 4.7998 7.19994C4.7998 7.86297 5.33703 8.4002 6.00006 8.4002H8.40001C9.0625 8.4002 9.59973 7.86297 9.59973 7.19994C9.59973 6.53746 9.0625 6.00024 8.40001 6.00024Z" fill="#9F7150"/>
<path d="M20.3997 6.00024H13.1998C12.5368 6.00024 11.9995 6.53746 11.9995 7.19994C11.9995 7.86297 12.5368 8.4002 13.1998 8.4002H20.3997C21.0627 8.4002 21.5999 7.86297 21.5999 7.19994C21.5999 6.53746 21.0627 6.00024 20.3997 6.00024Z" fill="#9F7150"/>
<path d="M65.7627 15.302V22.5018C65.7627 23.1649 66.2999 23.7021 66.9624 23.7021C67.6255 23.7021 68.1627 23.1649 68.1627 22.5018V15.302C68.1627 14.6389 67.6255 14.1017 66.9624 14.1017C66.2999 14.1017 65.7627 14.6389 65.7627 15.302Z" fill="#9F7150"/>
<path d="M65.7627 26.963V34.1628C65.7627 34.8259 66.2999 35.3631 66.9624 35.3631C67.6255 35.3631 68.1627 34.8259 68.1627 34.1628V26.963C68.1627 26.2999 67.6255 25.7627 66.9624 25.7627C66.2999 25.7627 65.7627 26.2999 65.7627 26.963Z" fill="#9F7150"/>
<path d="M65.7627 38.624V45.8239C65.7627 46.4869 66.2999 47.0241 66.9624 47.0241C67.6255 47.0241 68.1627 46.4869 68.1627 45.8239V38.624C68.1627 37.9609 67.6255 37.4237 66.9624 37.4237C66.2999 37.4237 65.7627 37.9609 65.7627 38.624Z" fill="#9F7150"/>
<path d="M65.7627 50.285V57.4849C65.7627 58.1479 66.2999 58.6852 66.9624 58.6852C67.6255 58.6852 68.1627 58.1479 68.1627 57.4849V50.285C68.1627 49.622 67.6255 49.0847 66.9624 49.0847C66.2999 49.0847 65.7627 49.622 65.7627 50.285Z" fill="#9F7150"/>
<path d="M15.5933 61.8142C15.5933 62.4973 16.1093 63.0509 16.7461 63.0509C17.3825 63.0509 17.8984 62.4973 17.8984 61.8142V12.3555C17.8984 11.6723 17.3825 11.1187 16.7461 11.1187C16.1093 11.1187 15.5933 11.6723 15.5933 12.3555V61.8142Z" fill="#9F7150"/>
<path d="M40.4067 61.6786C40.4067 62.3617 40.9226 62.9154 41.5595 62.9154C42.1958 62.9154 42.7118 62.3617 42.7118 61.6786V12.2199C42.7118 11.5367 42.1958 10.9832 41.5595 10.9832C40.9226 10.9832 40.4067 11.5367 40.4067 12.2199V61.6786Z" fill="#9F7150"/>
<path d="M3.73206 17.356C3.01856 17.356 2.44043 17.872 2.44043 18.5088C2.44043 19.1452 3.01856 19.6611 3.73206 19.6611H55.386C56.0995 19.6611 56.6777 19.1452 56.6777 18.5088C56.6777 17.872 56.0995 17.356 55.386 17.356H3.73206Z" fill="#9F7150"/>
<path d="M2.75056 17.6656C2.34377 18.0724 2.4389 18.787 2.89094 19.2391C3.34263 19.6907 4.00093 19.5384 4.37769 19.2391L10.7128 12.9622C11.0518 12.4876 11.013 12.0204 10.5613 11.5688C10.1092 11.1167 9.42466 11.1317 9.01788 11.5385L2.75056 17.6656Z" fill="#9F7150"/>
<path d="M2.75056 19.295C2.34377 18.8883 2.4389 18.1737 2.89094 17.7216C3.34263 17.27 4.00093 17.4222 4.37769 17.7216L10.7128 23.9985C11.0518 24.4731 11.013 24.9402 10.5613 25.392C10.1092 25.8439 9.42466 25.829 9.01788 25.4222L2.75056 19.295Z" fill="#9F7150"/>
<path d="M2.75056 30.4114C2.34377 30.8182 2.4389 31.5327 2.89094 31.9848C3.34263 32.4365 4.00093 32.2842 4.37769 31.9848L10.7128 25.7079C11.0518 25.2334 11.013 24.7662 10.5613 24.3146C10.1092 23.8625 9.42466 23.8774 9.01788 24.2842L2.75056 30.4114Z" fill="#9F7150"/>
<path d="M2.75056 32.0408C2.34377 31.634 2.4389 30.9195 2.89094 30.4674C3.34263 30.0157 4.00093 30.168 4.37769 30.4674L10.7128 36.7443C11.0518 37.2188 11.013 37.686 10.5613 38.1378C10.1092 38.5897 9.42466 38.5748 9.01788 38.168L2.75056 32.0408Z" fill="#9F7150"/>
<path d="M10.6379 23.4576C9.92975 23.4576 9.35596 23.9736 9.35596 24.6104C9.35596 25.2468 9.92975 25.7627 10.6379 25.7627H61.9045C62.6126 25.7627 63.1864 25.2468 63.1864 24.6104C63.1864 23.9736 62.6126 23.4576 61.9045 23.4576H10.6379Z" fill="#9F7150"/>
<path d="M3.73206 30.1017C3.01856 30.1017 2.44043 30.6176 2.44043 31.2545C2.44043 31.8908 3.01856 32.4068 3.73206 32.4068H55.386C56.0995 32.4068 56.6777 31.8908 56.6777 31.2545C56.6777 30.6176 56.0995 30.1017 55.386 30.1017H3.73206Z" fill="#9F7150"/>
<path d="M10.6379 36.2034C9.92975 36.2034 9.35596 36.7193 9.35596 37.3562C9.35596 37.9925 9.92975 38.5085 10.6379 38.5085H61.9045C62.6126 38.5085 63.1864 37.9925 63.1864 37.3562C63.1864 36.7193 62.6126 36.2034 61.9045 36.2034H10.6379Z" fill="#9F7150"/>
<path d="M3.73206 42.8475C3.01856 42.8475 2.44043 43.3634 2.44043 44.0003C2.44043 44.6366 3.01856 45.1525 3.73206 45.1525H55.386C56.0995 45.1525 56.6777 44.6366 56.6777 44.0003C56.6777 43.3634 56.0995 42.8475 55.386 42.8475H3.73206Z" fill="#9F7150"/>
<path d="M2.75056 43.1573C2.34377 43.564 2.4389 44.2786 2.89094 44.7307C3.34263 45.1823 4.00093 45.0301 4.37769 44.7307L10.7128 38.4538C11.0518 37.9792 11.013 37.5121 10.5613 37.0604C10.1092 36.6084 9.42466 36.6233 9.01788 37.0301L2.75056 43.1573Z" fill="#9F7150"/>
<path d="M2.75056 44.7866C2.34377 44.3798 2.4389 43.6652 2.89094 43.2132C3.34263 42.7615 4.00093 42.9138 4.37769 43.2132L10.7128 49.49C11.0518 49.9646 11.013 50.4319 10.5613 50.8835C10.1092 51.3356 9.42466 51.3205 9.01788 50.9138L2.75056 44.7866Z" fill="#9F7150"/>
<path d="M2.75056 55.9029C2.34377 56.3097 2.4389 57.0243 2.89094 57.4763C3.34263 57.928 4.00093 57.7757 4.37769 57.4763L10.7128 51.1995C11.0518 50.7249 11.013 50.2578 10.5613 49.8061C10.1092 49.354 9.42466 49.3689 9.01788 49.7757L2.75056 55.9029Z" fill="#9F7150"/>
<path d="M2.75056 57.5323C2.34377 57.1256 2.4389 56.411 2.89094 55.9589C3.34263 55.5073 4.00093 55.6595 4.37769 55.9589L10.7128 62.2358C11.0518 62.7104 11.013 63.1776 10.5613 63.6293C10.1092 64.0814 9.42466 64.0663 9.01788 63.6595L2.75056 57.5323Z" fill="#9F7150"/>
<path d="M54.9537 30.1402C54.5469 30.547 54.6421 31.2616 55.0941 31.7136C55.5458 32.1653 56.2041 32.013 56.5808 31.7136L62.916 25.4367C63.255 24.9622 63.216 24.4951 62.7644 24.0434C62.3123 23.5913 61.6278 23.6062 61.2211 24.013L54.9537 30.1402Z" fill="#9F7150"/>
<path d="M54.9537 31.7696C54.5469 31.3628 54.6421 30.6483 55.0941 30.1962C55.5458 29.7445 56.2041 29.8968 56.5808 30.1962L62.916 36.4731C63.255 36.9477 63.216 37.4148 62.7644 37.8666C62.3123 38.3185 61.6278 38.3036 61.2211 37.8968L54.9537 31.7696Z" fill="#9F7150"/>
<path d="M54.9537 17.3944C54.5469 17.8012 54.6421 18.5158 55.0941 18.9679C55.5458 19.4195 56.2041 19.2673 56.5808 18.9679L62.916 12.691C63.255 12.2164 63.216 11.7492 62.7644 11.2976C62.3123 10.8455 61.6278 10.8605 61.2211 11.2673L54.9537 17.3944Z" fill="#9F7150"/>
<path d="M54.9537 19.0239C54.5469 18.6171 54.6421 17.9025 55.0941 17.4504C55.5458 16.9988 56.2041 17.1511 56.5808 17.4504L62.916 23.7273C63.255 24.2019 63.216 24.669 62.7644 25.1208C62.3123 25.5727 61.6278 25.5578 61.2211 25.1511L54.9537 19.0239Z" fill="#9F7150"/>
<path d="M54.9537 55.6317C54.5469 56.0385 54.6421 56.7531 55.0941 57.2052C55.5458 57.6568 56.2041 57.5045 56.5808 57.2052L62.916 50.9283C63.255 50.4537 63.216 49.9866 62.7644 49.5349C62.3123 49.0828 61.6278 49.0978 61.2211 49.5045L54.9537 55.6317Z" fill="#9F7150"/>
<path d="M54.9537 57.2612C54.5469 56.8544 54.6421 56.1398 55.0941 55.6877C55.5458 55.2361 56.2041 55.3883 56.5808 55.6877L62.916 61.9646C63.255 62.4392 63.216 62.9064 62.7644 63.3581C62.3123 63.8102 61.6278 63.7951 61.2211 63.3883L54.9537 57.2612Z" fill="#9F7150"/>
<path d="M54.9537 42.886C54.5469 43.2927 54.6421 44.0073 55.0941 44.4594C55.5458 44.9111 56.2041 44.7588 56.5808 44.4594L62.916 38.1825C63.255 37.7079 63.216 37.2408 62.7644 36.7892C62.3123 36.3371 61.6278 36.352 61.2211 36.7588L54.9537 42.886Z" fill="#9F7150"/>
<path d="M54.9537 44.5154C54.5469 44.1086 54.6421 43.394 55.0941 42.942C55.5458 42.4903 56.2041 42.6426 56.5808 42.942L62.916 49.2188C63.255 49.6934 63.216 50.1607 62.7644 50.6123C62.3123 51.0644 61.6278 51.0494 61.2211 50.6426L54.9537 44.5154Z" fill="#9F7150"/>
<path d="M10.6379 48.9492C9.92975 48.9492 9.35596 49.4651 9.35596 50.102C9.35596 50.7383 9.92975 51.2542 10.6379 51.2542H61.9045C62.6126 51.2542 63.1864 50.7383 63.1864 50.102C63.1864 49.4651 62.6126 48.9492 61.9045 48.9492H10.6379Z" fill="#9F7150"/>
<path d="M3.72237 55.5933C3.01422 55.5933 2.44043 56.1093 2.44043 56.7461C2.44043 57.3825 3.01422 57.8984 3.72237 57.8984H54.989C55.6971 57.8984 56.2709 57.3825 56.2709 56.7461C56.2709 56.1093 55.6971 55.5933 54.989 55.5933H3.72237Z" fill="#9F7150"/>
<path d="M10.6379 61.6948C9.92975 61.6948 9.35596 62.2107 9.35596 62.8476C9.35596 63.484 9.92975 63.9999 10.6379 63.9999H61.9045C62.6126 63.9999 63.1864 63.484 63.1864 62.8476C63.1864 62.2107 62.6126 61.6948 61.9045 61.6948H10.6379Z" fill="#9F7150"/>
</svg>
