<svg width="32" height="31" viewBox="0 0 72 71" fill="none" xmlns="http://www.w3.org/2000/svg">
<path d="M4.19786 18.2535C3.31929 18.2535 2.60742 18.74 2.60742 19.3403C2.60742 19.9401 3.31929 20.4266 4.19786 20.4266H67.8017C68.6803 20.4266 69.3922 19.9401 69.3922 19.3403C69.3922 18.74 68.6803 18.2535 67.8017 18.2535H4.19786Z" fill="#9F7150"/>
<path d="M4.19786 25.7867C3.31929 25.7867 2.60742 26.2731 2.60742 26.8735C2.60742 27.4733 3.31929 27.9598 4.19786 27.9598H67.8017C68.6803 27.9598 69.3922 27.4733 69.3922 26.8735C69.3922 26.2731 68.6803 25.7867 67.8017 25.7867H4.19786Z" fill="#9F7150"/>
<path d="M4.19786 33.3198C3.31929 33.3198 2.60742 33.8063 2.60742 34.4066C2.60742 35.0064 3.31929 35.4929 4.19786 35.4929H67.8017C68.6803 35.4929 69.3922 35.0064 69.3922 34.4066C69.3922 33.8063 68.6803 33.3198 67.8017 33.3198H4.19786Z" fill="#9F7150"/>
<path d="M4.19786 40.853C3.31929 40.853 2.60742 41.3395 2.60742 41.9398C2.60742 42.5396 3.31929 43.0261 4.19786 43.0261H67.8017C68.6803 43.0261 69.3922 42.5396 69.3922 41.9398C69.3922 41.3395 68.6803 40.853 67.8017 40.853H4.19786Z" fill="#9F7150"/>
<path d="M4.34288 48.8209C3.46432 48.8209 2.75244 49.3074 2.75244 49.9077C2.75244 50.5075 3.46432 50.994 4.34288 50.994H67.9467C68.8253 50.994 69.5372 50.5075 69.5372 49.9077C69.5372 49.3074 68.8253 48.8209 67.9467 48.8209H4.34288Z" fill="#9F7150"/>
<path fill-rule="evenodd" clip-rule="evenodd" d="M69.6 0H2.39996C1.07501 0.00109863 0.00109863 1.07501 0 2.39996V10.8001C0.00109863 12.1251 1.07501 13.1984 2.39996 13.2001H68.068H69.6C70.925 13.1984 71.9984 12.1251 72 10.8001V2.39996C71.9984 1.07501 70.925 0.00164796 69.6 0ZM2.39996 10.8001H65.9998H69.6011L69.6 2.39996H2.39996V10.8001Z" fill="#9F7150"/>
<path d="M8.40002 6.00024H6.00006C5.33704 6.00024 4.7998 6.53748 4.7998 7.19995C4.7998 7.86298 5.33704 8.40021 6.00006 8.40021H8.40002C9.0625 8.40021 9.59973 7.86298 9.59973 7.19995C9.59973 6.53748 9.0625 6.00024 8.40002 6.00024Z" fill="#9F7150"/>
<path d="M34.9136 51.6143V54.0142C34.9136 54.6772 35.4508 55.2145 36.1133 55.2145C36.7763 55.2145 37.3135 54.6772 37.3135 54.0142V51.6143C37.3135 50.9518 36.7763 50.4146 36.1133 50.4146C35.4508 50.4146 34.9136 50.9518 34.9136 51.6143Z" fill="#9F7150"/>
<path d="M20.4001 6.00024H13.2002C12.5372 6.00024 12 6.53748 12 7.19995C12 7.86298 12.5372 8.40021 13.2002 8.40021H20.4001C21.0631 8.40021 21.6004 7.86298 21.6004 7.19995C21.6004 6.53748 21.0631 6.00024 20.4001 6.00024Z" fill="#9F7150"/>
<path fill-rule="evenodd" clip-rule="evenodd" d="M2.60742 11.0101H69.6818V70.4064H2.60742V11.0101ZM4.78045 13.1831V68.2334H67.5089V13.1831H4.78045Z" fill="#9F7150"/>
<path fill-rule="evenodd" clip-rule="evenodd" d="M36 58.2374C36.7601 58.2374 37.3762 57.6212 37.3762 56.8612C37.3762 56.1011 36.7601 55.4849 36 55.4849C35.2399 55.4849 34.6237 56.1011 34.6237 56.8612C34.6237 57.6212 35.2399 58.2374 36 58.2374ZM36 60.4105C37.9602 60.4105 39.5493 58.8214 39.5493 56.8612C39.5493 54.9009 37.9602 53.3119 36 53.3119C34.0398 53.3119 32.4507 54.9009 32.4507 56.8612C32.4507 58.8214 34.0398 60.4105 36 60.4105Z" fill="#9F7150"/>
</svg>
