<svg width="35" height="36" viewBox="0 0 75 76" fill="none" xmlns="http://www.w3.org/2000/svg">
<path fill-rule="evenodd" clip-rule="evenodd" d="M72.6 0H5.39996C4.07501 0.00109863 3.0011 1.07501 3 2.39996V10.8001C3.0011 12.1251 4.07501 13.1984 5.39996 13.2001H71.068H72.6C73.925 13.1984 74.9984 12.1251 75 10.8001V2.39996C74.9984 1.07501 73.925 0.00164796 72.6 0ZM5.39996 10.8001H68.9998H72.6011L72.6 2.39996H5.39996V10.8001Z" fill="#9F7150"/>
<path d="M11.4 6.00024H9.00006C8.33704 6.00024 7.7998 6.53747 7.7998 7.19995C7.7998 7.86297 8.33704 8.40021 9.00006 8.40021H11.4C12.0625 8.40021 12.5997 7.86297 12.5997 7.19995C12.5997 6.53747 12.0625 6.00024 11.4 6.00024Z" fill="#9F7150"/>
<path d="M23.4001 6.00024H16.2002C15.5372 6.00024 15 6.53747 15 7.19995C15 7.86297 15.5372 8.40021 16.2002 8.40021H23.4001C24.0631 8.40021 24.6004 7.86297 24.6004 7.19995C24.6004 6.53747 24.0631 6.00024 23.4001 6.00024Z" fill="#9F7150"/>
<path d="M70 54V12" stroke="#9F7150" stroke-width="2" stroke-linecap="round" stroke-dasharray="5 4"/>
<path d="M63 17H35V75H63V17Z" stroke="#9F7150" stroke-width="2" stroke-linejoin="round"/>
<path d="M35.1001 74.0357V18" stroke="#9F7150" stroke-width="1.8"/>
<path d="M44.1001 74.0357V18" stroke="#9F7150" stroke-width="1.8"/>
<path d="M53.1001 74.0357V18" stroke="#9F7150" stroke-width="1.8"/>
<path d="M40.25 17.25V12.75" stroke="#9F7150" stroke-width="1.5" stroke-linecap="round"/>
<path d="M49.25 17.25V12.75" stroke="#9F7150" stroke-width="1.5" stroke-linecap="round"/>
<path d="M58.25 17.25V12.75" stroke="#9F7150" stroke-width="1.5" stroke-linecap="round"/>
<path d="M13 47H4C2.34315 47 1 48.3431 1 50V72C1 73.6569 2.34315 75 4 75H13C14.6569 75 16 73.6569 16 72V50C16 48.3431 14.6569 47 13 47Z" stroke="#9F7150" stroke-width="2" stroke-linejoin="round"/>
<path d="M9.19521 50.719C9.08066 50.4355 8.80554 50.25 8.49984 50.25C8.19414 50.25 7.91903 50.4355 7.80448 50.719L4.77339 58.219C4.67996 58.4501 4.70753 58.7126 4.84695 58.9193C4.98637 59.1261 5.21942 59.25 5.46876 59.25H11.5309C11.7802 59.25 12.0133 59.1261 12.1527 58.9193C12.2921 58.7126 12.3197 58.4501 12.2262 58.219L9.19521 50.719Z" stroke="#9F7150" stroke-width="1.5" stroke-linejoin="round"/>
<path d="M9.19521 71.281C9.08066 71.5644 8.80554 71.75 8.49984 71.75C8.19414 71.75 7.91903 71.5644 7.80448 71.281L4.77339 63.781C4.67996 63.5498 4.70753 63.2873 4.84695 63.0806C4.98637 62.8739 5.21942 62.75 5.46876 62.75H11.5309C11.7802 62.75 12.0133 62.8739 12.1527 63.0806C12.2921 63.2873 12.3197 63.5498 12.2262 63.781L9.19521 71.281Z" stroke="#9F7150" stroke-width="1.5" stroke-linejoin="round"/>
<path d="M28.3431 44.2948C28.5471 45.0977 27.1096 45.5314 26.8893 44.6641C26.7655 44.1771 26.6116 43.6993 26.4287 43.2335C26.0381 42.2386 25.5155 41.2982 24.8732 40.4382C23.9303 39.1757 22.7478 38.1112 21.3935 37.3055C20.0391 36.4999 18.5393 35.9689 16.9797 35.7429C15.9175 35.589 14.8417 35.5786 13.781 35.7102C13.2844 35.7718 13.2732 35.7421 12.304 35.9883C11.3348 36.2345 10.9655 34.7808 11.9347 34.5345C12.9039 34.2883 15.4403 34.0042 17.1949 34.2584C18.9494 34.5127 20.6366 35.11 22.1603 36.0164C23.684 36.9227 25.0142 38.1202 26.075 39.5407C27.1359 40.9611 27.9066 42.5765 28.3431 44.2948Z" fill="#9F7150"/>
<path d="M24.3317 45.3584C24.376 45.5329 24.3308 45.6897 24.2371 45.8105C24.1451 45.929 24.0079 46.0117 23.8639 46.0517C23.72 46.0917 23.5599 46.0916 23.4206 46.0321C23.2779 45.9711 23.1643 45.8504 23.1177 45.6668C23.0311 45.3265 22.9237 44.9927 22.7963 44.6672C22.5241 43.972 22.1603 43.3147 21.7136 42.7134C21.0579 41.8306 20.2362 41.0859 19.2956 40.5218C18.355 39.9576 17.314 39.5851 16.2319 39.4254C15.4949 39.3167 14.7485 39.3081 14.013 39.3987C13.946 39.407 13.8926 39.4128 13.8455 39.4179C13.7657 39.4266 13.7038 39.4334 13.6231 39.4468C13.497 39.4677 13.3283 39.5048 12.9886 39.5911C12.7921 39.641 12.6185 39.605 12.4843 39.5134C12.3521 39.4231 12.2644 39.2834 12.2266 39.1345C12.1887 38.9856 12.1992 38.8209 12.2723 38.6786C12.3465 38.534 12.4817 38.4195 12.6783 38.3695C13.0263 38.2811 13.648 38.1879 14.3354 38.1394C15.0229 38.0909 15.7841 38.0865 16.4103 38.1789C17.6555 38.3626 18.8532 38.7913 19.9353 39.4403C21.0174 40.0893 21.9625 40.946 22.7168 41.9614C23.4712 42.9768 24.0199 44.1311 24.3317 45.3584Z" fill="#9F7150" stroke="#9F7150" stroke-width="0.2" stroke-linejoin="round"/>
<path d="M20.5965 46.4958C20.6347 46.6463 20.5949 46.7841 20.5146 46.8874C20.4381 46.986 20.3281 47.0505 20.2177 47.0812C20.1074 47.1118 19.9778 47.1139 19.8592 47.0633C19.7336 47.0096 19.6355 46.9024 19.5967 46.7498C19.5463 46.5513 19.4836 46.3566 19.4093 46.1666C19.2504 45.761 19.0382 45.3776 18.7777 45.0268C18.3951 44.5118 17.9158 44.0774 17.3672 43.7484C16.8186 43.4194 16.2115 43.2021 15.5805 43.109C15.1507 43.0456 14.7156 43.0406 14.2867 43.0934C14.2413 43.099 14.2078 43.1027 14.1795 43.1057C14.1351 43.1105 14.1036 43.114 14.0587 43.1214C13.9891 43.133 13.8928 43.154 13.6895 43.2056C13.5344 43.245 13.3887 43.2175 13.2735 43.1389C13.1625 43.0631 13.092 42.9485 13.062 42.8305C13.0321 42.7125 13.0392 42.5781 13.1006 42.4585C13.1643 42.3344 13.2793 42.2407 13.4344 42.2013C13.6543 42.1454 14.0363 42.0887 14.4532 42.0593C14.8704 42.0298 15.3385 42.0266 15.7284 42.0841C16.4938 42.1971 17.23 42.4605 17.895 42.8594C18.56 43.2582 19.1409 43.7847 19.6043 44.4086C20.0678 45.0326 20.405 45.7418 20.5965 46.4958Z" fill="#9F7150" stroke="#9F7150" stroke-width="0.4" stroke-linejoin="round"/>
<path d="M5 21L12.5 25.3301V16.6699L5 21ZM30 21L22.5 16.6699V25.3301L30 21ZM11.75 21.75H23.25V20.25H11.75V21.75Z" fill="#9F7150"/>
</svg>
