<svg width="32" height="28" viewBox="0 0 72 68" fill="none" xmlns="http://www.w3.org/2000/svg">
<path fill-rule="evenodd" clip-rule="evenodd" d="M69.6 0H2.39996C1.07501 0.00109535 0.00109863 1.0718 0 2.3928V10.7679C0.00109863 12.0889 1.07501 13.159 2.39996 13.1607H68.068H69.6C70.925 13.159 71.9984 12.0889 72 10.7679V2.3928C71.9984 1.0718 70.925 0.00164305 69.6 0ZM2.39996 10.7679H65.9998H69.6011L69.6 2.3928H2.39996V10.7679Z" fill="#9F7150"/>
<path d="M8.40002 5.98242H6.00006C5.33704 5.98242 4.7998 6.51805 4.7998 7.17854C4.7998 7.8396 5.33704 8.37523 6.00006 8.37523H8.40002C9.0625 8.37523 9.59973 7.8396 9.59973 7.17854C9.59973 6.51805 9.0625 5.98242 8.40002 5.98242Z" fill="#9F7150"/>
<path d="M20.4001 5.98242H13.2002C12.5372 5.98242 12 6.51805 12 7.17854C12 7.8396 12.5372 8.37523 13.2002 8.37523H20.4001C21.0631 8.37523 21.6004 7.8396 21.6004 7.17854C21.6004 6.51805 21.0631 5.98242 20.4001 5.98242Z" fill="#9F7150"/>
<path d="M65.7627 15.2563V22.4347C65.7627 23.0957 66.2999 23.6313 66.9624 23.6313C67.6254 23.6313 68.1627 23.0957 68.1627 22.4347V15.2563C68.1627 14.5953 67.6254 14.0596 66.9624 14.0596C66.2999 14.0596 65.7627 14.5953 65.7627 15.2563Z" fill="#9F7150"/>
<path d="M65.7627 26.8826V34.061C65.7627 34.7221 66.2999 35.2577 66.9624 35.2577C67.6254 35.2577 68.1627 34.7221 68.1627 34.061V26.8826C68.1627 26.2215 67.6254 25.6859 66.9624 25.6859C66.2999 25.6859 65.7627 26.2215 65.7627 26.8826Z" fill="#9F7150"/>
<path d="M65.7627 38.5089V45.6873C65.7627 46.3483 66.2999 46.8839 66.9624 46.8839C67.6254 46.8839 68.1627 46.3483 68.1627 45.6873V38.5089C68.1627 37.8477 67.6254 37.3121 66.9624 37.3121C66.2999 37.3121 65.7627 37.8477 65.7627 38.5089Z" fill="#9F7150"/>
<path d="M65.7627 50.1351V57.3135C65.7627 57.9745 66.2999 58.5102 66.9624 58.5102C67.6254 58.5102 68.1627 57.9745 68.1627 57.3135V50.1351C68.1627 49.4741 67.6254 48.9385 66.9624 48.9385C66.2999 48.9385 65.7627 49.4741 65.7627 50.1351Z" fill="#9F7150"/>
<path fill-rule="evenodd" clip-rule="evenodd" d="M63.0506 59.2127C63.0506 64.0658 59.1046 68 54.237 68H10.3048C5.43717 68 1.49121 64.0658 1.49121 59.2127V10.8152H63.0506V59.2127ZM61.0167 43.6033V48.9385C61.0167 52.6716 57.9813 55.6978 54.237 55.6978H10.3048C6.56046 55.6978 3.5251 52.6716 3.5251 48.9385V43.6033C5.14179 45.5415 7.57875 46.7754 10.3048 46.7754H54.237C56.963 46.7754 59.4 45.5415 61.0167 43.6033ZM61.0167 37.9881V12.843H3.5251V37.9881C3.5251 41.7212 6.56046 44.7476 10.3048 44.7476H54.237C57.9813 44.7476 61.0167 41.7212 61.0167 37.9881ZM3.5251 54.5536V59.2127C3.5251 62.9459 6.56046 65.9722 10.3048 65.9722H54.237C57.9813 65.9722 61.0167 62.9459 61.0167 59.2127V54.5536C59.4 56.4918 56.963 57.7257 54.237 57.7257H10.3048C7.57875 57.7257 5.14179 56.4918 3.5251 54.5536Z" fill="#9F7150"/>
</svg>
